<?xml version="1.0" encoding="utf-8"?>
<svg version="1.1" id="Icon_Set" xmlns="http://www.w3.org/2000/svg"
  xmlns:xlink="http://www.w3.org/1999/xlink" x="0px" y="0px"
  viewBox="0 0 512 512" style="enable-background:new 0 0 512 512;" xml:space="preserve">
<style type="text/css">
	.st0{fill:#4C4372;}
	.st1{fill:#F0C48A;}
	.st2{fill:#FD919E;}
	.st3{fill:#E8677D;}
	.st4{fill:#D3E6F8;}
	.st5{fill:#A4CFF2;}
	.st6{fill:#7BABF1;}
	.st7{fill:#FFFFFF;}
</style>
<g>
	<g>
		<g>
			<g>
				<circle class="st1" cx="256" cy="256" r="207"/>
			</g>
		</g>
	</g>
	<g>
		<g>
			<g>
				<g>
					<path class="st4" d="M430.524,247.65H81.477c-16,0-28.971-12.971-28.971-28.971l0,0c0-16,12.971-28.972,28.971-28.972h349.047
						c16,0,28.971,12.971,28.971,28.972l0,0C459.495,234.679,446.524,247.65,430.524,247.65z"/>
				</g>
			</g>
		</g>
		<g>
			<g>
				<g>
					<path class="st5" d="M430.524,189.707h-42.906v57.943h42.906c16,0,28.971-12.971,28.971-28.971l0,0
						C459.495,202.678,446.524,189.707,430.524,189.707z"/>
				</g>
			</g>
		</g>
		<g>
			<g>
				<g>
					<path class="st4" d="M346.995,63.806H165.005c-16,0-28.971-12.971-28.971-28.971l0,0c0-16.001,12.971-28.972,28.971-28.972
						h181.989c16.001,0,28.972,12.971,28.972,28.972l0,0C375.966,50.834,362.996,63.806,346.995,63.806z"/>
				</g>
			</g>
		</g>
		<g>
			<g>
				<g>
					<path class="st5" d="M346.995,5.863h-32.271v57.943h32.271c16.001,0,28.972-12.97,28.972-28.971l0,0
						C375.966,18.833,362.996,5.863,346.995,5.863z"/>
				</g>
			</g>
		</g>
		<g>
			<g>
				<g>
					<path class="st2" d="M388.682,506.137H123.319c-19.07,0-34.529-15.459-34.529-34.529V247.65h334.422v223.957
						C423.211,490.678,407.753,506.137,388.682,506.137z"/>
				</g>
			</g>
		</g>
		<g>
			<g>
				<g>
					<path class="st3" d="M388.682,506.137h-12.716V247.65h47.245v223.957C423.211,490.678,407.753,506.137,388.682,506.137z"/>
				</g>
			</g>
		</g>
		<g>
			<g>
				<g>
					<rect x="231.127" y="63.805" class="st7" width="49.746" height="69.145"/>
				</g>
			</g>
		</g>
		<g>
			<g>
				<g>
					<rect x="260.36" y="63.805" class="st4" width="20.514" height="69.145"/>
				</g>
			</g>
		</g>
		<g>
			<g>
				<rect x="211.368" y="132.95" class="st5" width="89.266" height="56.757"/>
			</g>
		</g>
		<g>
			<g>
				<rect x="269.04" y="132.95" class="st6" width="31.594" height="56.757"/>
			</g>
		</g>
		<g>
			<g>
				<g>
					<g>
						<g>
							<path class="st0" d="M242.974,400.715v-96.563c0-7.171,5.975-13.146,13.145-13.146c7.171,0,12.908,5.976,12.908,13.146
								v96.563c0,7.41-5.737,13.146-12.908,13.146C248.949,413.861,242.974,408.125,242.974,400.715z M256.119,458.318
								c-7.17,0-13.145-5.737-13.145-13.146v-4.78c0-7.171,5.975-13.146,13.145-13.146c7.171,0,12.908,5.975,12.908,13.146v4.78
								C269.027,452.581,263.29,458.318,256.119,458.318z"/>
						</g>
					</g>
				</g>
			</g>
		</g>
		<g>
			<g>
				<g>
					<path class="st0" d="M430.524,253.512H81.477c-19.207,0-34.834-15.627-34.834-34.834c0-19.207,15.627-34.834,34.834-34.834
						h349.047c19.207,0,34.833,15.627,34.833,34.834C465.357,237.886,449.731,253.512,430.524,253.512z M81.477,195.57
						c-12.742,0-23.108,10.366-23.108,23.108c0,12.743,10.366,23.109,23.108,23.109h349.047c12.742,0,23.108-10.366,23.108-23.109
						c0-12.742-10.366-23.108-23.108-23.108H81.477z"/>
				</g>
			</g>
		</g>
		<g>
			<g>
				<g>
					<path class="st0" d="M346.995,69.669H165.006c-19.207,0-34.834-15.628-34.834-34.834C130.172,15.627,145.799,0,165.006,0
						h181.988c19.207,0,34.834,15.627,34.834,34.834C381.829,54.041,366.202,69.669,346.995,69.669z M165.006,11.725
						c-12.742,0-23.108,10.367-23.108,23.109c0,12.742,10.366,23.108,23.108,23.108h181.988c12.742,0,23.109-10.367,23.109-23.108
						c0-12.743-10.367-23.109-23.109-23.109H165.006z"/>
				</g>
			</g>
		</g>
		<g>
			<g>
				<g>
					<path class="st0" d="M388.682,512H123.319c-22.271,0-40.392-18.12-40.392-40.393V247.65c0-3.238,2.625-5.863,5.862-5.863
						h334.422c3.237,0,5.862,2.625,5.862,5.863v223.957C429.074,493.88,410.954,512,388.682,512z M94.652,253.512v218.095
						c0,15.808,12.86,28.668,28.667,28.668h265.363c15.807,0,28.667-12.86,28.667-28.668V253.512H94.652z"/>
				</g>
			</g>
		</g>
		<g>
			<g>
				<g>
					<path class="st0" d="M280.874,138.814h-49.746c-3.237,0-5.862-2.625-5.862-5.863V63.805c0-3.237,2.625-5.862,5.862-5.862
						h49.746c3.237,0,5.862,2.625,5.862,5.862v69.145C286.736,136.189,284.111,138.814,280.874,138.814z M236.99,127.088h38.021
						V69.669H236.99V127.088z"/>
				</g>
			</g>
		</g>
		<g>
			<g>
				<path class="st0" d="M300.633,195.57h-89.266c-3.237,0-5.862-2.625-5.862-5.863V132.95c0-3.237,2.625-5.862,5.862-5.862h89.266
					c3.237,0,5.862,2.625,5.862,5.862v56.757C306.496,192.945,303.871,195.57,300.633,195.57z M217.231,183.845h77.539v-45.031
					h-77.539V183.845z"/>
			</g>
		</g>
	</g>
</g>
</svg>