<?xml version="1.0" encoding="utf-8"?>
<svg version="1.1" id="Icon_Set" xmlns="http://www.w3.org/2000/svg"
  xmlns:xlink="http://www.w3.org/1999/xlink" x="0px" y="0px"
  viewBox="0 0 512 512" style="enable-background:new 0 0 512 512;" xml:space="preserve">
<style type="text/css">
	.st0{fill:#4C4372;}
	.st1{fill:#F0C48A;}
	.st2{fill:#FD919E;}
	.st3{fill:#E8677D;}
	.st4{fill:#D3E6F8;}
	.st5{fill:#A4CFF2;}
	.st6{fill:#7BABF1;}
	.st7{fill:#FFFFFF;}
</style>
<g>
	<g>
		<g>
        <!-- background circle -->
        <g>
				<circle class="st1" cx="256" cy="256" r="207"/>
			</g>
		</g>
	</g>
	<g>
		<g>
			<g>
				<path class="st5" d="M333.639,451.01H49.314c-23.998,0-43.452-19.454-43.452-43.451l0,0c0-23.998,19.454-43.452,43.452-43.452
					h284.325c23.998,0,43.452,19.454,43.452,43.452l0,0C377.091,431.556,357.637,451.01,333.639,451.01z"/>
			</g>
		</g>
		<g>
			<g>
				<path class="st6" d="M374.397,422.643H8.557c6.131,16.56,22.064,28.367,40.757,28.367h284.325
					C352.332,451.01,368.266,439.203,374.397,422.643z"/>
			</g>
		</g>
		<g>
			<g>
				<path class="st4" d="M314.143,282.005H39.719v82.102h295.577v-60.948C335.296,291.476,325.825,282.005,314.143,282.005z"/>
			</g>
		</g>
		<g>
			<g>
				<path class="st5" d="M314.143,282.006h-19.754v82.101h40.907v-60.948C335.296,291.476,325.825,282.006,314.143,282.006z"/>
			</g>
		</g>
		<g>
			<g>
				<circle class="st4" cx="441.865" cy="327.129" r="64.271"/>
			</g>
		</g>
		<g>
			<g>
				<g>
					<path class="st7" d="M441.865,227.917L441.865,227.917c5.18,0,9.417,4.237,9.417,9.416v16.109c0,5.179-4.237,9.416-9.417,9.416
						l0,0c-5.179,0-9.416-4.237-9.416-9.416v-16.109C432.449,232.154,436.686,227.917,441.865,227.917z"/>
				</g>
			</g>
			<g>
				<g>
					<path class="st7" d="M441.865,192.976L441.865,192.976c5.18,0,9.417,4.237,9.417,9.416v16.109c0,5.179-4.237,9.416-9.417,9.416
						l0,0c-5.179,0-9.416-4.237-9.416-9.416v-16.109C432.449,197.213,436.686,192.976,441.865,192.976z"/>
				</g>
			</g>
			<g>
				<g>
					<path class="st7" d="M441.865,158.035L441.865,158.035c5.18,0,9.417,4.238,9.417,9.416v16.108c0,5.179-4.237,9.417-9.417,9.417
						l0,0c-5.179,0-9.416-4.237-9.416-9.417v-16.108C432.449,162.273,436.686,158.035,441.865,158.035z"/>
				</g>
			</g>
			<g>
				<g>
					<path class="st7" d="M441.865,123.094L441.865,123.094c5.18,0,9.417,4.237,9.417,9.416v16.108c0,5.179-4.237,9.417-9.417,9.417
						l0,0c-5.179,0-9.416-4.237-9.416-9.417V132.51C432.449,127.331,436.686,123.094,441.865,123.094z"/>
				</g>
			</g>
			<g>
				<g>
					<path class="st7" d="M441.865,88.153L441.865,88.153c5.18,0,9.417,4.237,9.417,9.416v16.108c0,5.179-4.237,9.417-9.417,9.417
						l0,0c-5.179,0-9.416-4.237-9.416-9.417V97.569C432.449,92.39,436.686,88.153,441.865,88.153z"/>
				</g>
			</g>
		</g>
		<g>
			<g>
				<g>
					<path class="st0" d="M441.865,268.72c-8.425,0-15.278-6.854-15.278-15.278v-16.109c0-8.425,6.853-15.279,15.278-15.279
						c8.426,0,15.279,6.854,15.279,15.279v16.109C457.145,261.865,450.291,268.72,441.865,268.72z M441.865,233.779
						c-1.927,0-3.554,1.627-3.554,3.553v16.109c0,1.926,1.627,3.553,3.554,3.553c1.927,0,3.555-1.627,3.555-3.553v-16.109
						C445.42,235.406,443.792,233.779,441.865,233.779z"/>
				</g>
			</g>
			<g>
				<g>
					<path class="st0" d="M441.865,233.779c-8.425,0-15.278-6.854-15.278-15.279v-16.109c0-8.424,6.853-15.278,15.278-15.278
						c8.426,0,15.279,6.854,15.279,15.278v16.109C457.145,226.925,450.291,233.779,441.865,233.779z M441.865,198.838
						c-1.927,0-3.554,1.627-3.554,3.553v16.109c0,1.926,1.627,3.553,3.554,3.553c1.927,0,3.555-1.627,3.555-3.553v-16.109
						C445.42,200.465,443.792,198.838,441.865,198.838z"/>
				</g>
			</g>
			<g>
				<g>
					<path class="st0" d="M441.865,198.838c-8.425,0-15.278-6.854-15.278-15.279v-16.109c0-8.424,6.853-15.278,15.278-15.278
						c8.426,0,15.279,6.854,15.279,15.278v16.109C457.145,191.984,450.291,198.838,441.865,198.838z M441.865,163.898
						c-1.927,0-3.554,1.627-3.554,3.553v16.109c0,1.927,1.627,3.554,3.554,3.554c1.927,0,3.555-1.627,3.555-3.554v-16.109
						C445.42,165.524,443.792,163.898,441.865,163.898z"/>
				</g>
			</g>
			<g>
				<g>
					<path class="st0" d="M441.865,163.898c-8.425,0-15.278-6.854-15.278-15.279V132.51c0-8.424,6.853-15.278,15.278-15.278
						c8.426,0,15.279,6.854,15.279,15.278v16.109C457.145,157.044,450.291,163.898,441.865,163.898z M441.865,128.956
						c-1.927,0-3.554,1.627-3.554,3.553v16.109c0,1.927,1.627,3.554,3.554,3.554c1.927,0,3.555-1.627,3.555-3.554V132.51
						C445.42,130.583,443.792,128.956,441.865,128.956z"/>
				</g>
			</g>
			<g>
				<g>
					<path class="st0" d="M441.865,128.956c-8.425,0-15.278-6.854-15.278-15.28V97.569c0-8.425,6.853-15.279,15.278-15.279
						c8.426,0,15.279,6.854,15.279,15.279v16.108C457.145,122.103,450.291,128.956,441.865,128.956z M441.865,94.016
						c-1.927,0-3.554,1.627-3.554,3.554v16.108c0,1.927,1.627,3.555,3.554,3.555c1.927,0,3.555-1.628,3.555-3.555V97.569
						C445.42,95.643,443.792,94.016,441.865,94.016z"/>
				</g>
			</g>
		</g>
		<g>
			<g>
				<path class="st5" d="M476.016,272.69c9.92,11.31,15.946,26.122,15.946,42.349c0,35.496-28.775,64.272-64.272,64.272
					c-12.552,0-24.254-3.611-34.15-9.832c11.78,13.431,29.057,21.923,48.326,21.923c35.496,0,64.27-28.775,64.27-64.271
					C506.137,304.185,494.105,284.061,476.016,272.69z"/>
			</g>
		</g>
		<g>
			<g>
				<g>
					<circle class="st6" cx="68.992" cy="407.559" r="21.335"/>
				</g>
			</g>
			<g>
				<g>
					<circle class="st6" cx="150.648" cy="407.559" r="21.335"/>
				</g>
			</g>
			<g>
				<g>
					<circle class="st6" cx="232.305" cy="407.559" r="21.335"/>
				</g>
			</g>
			<g>
				<g>
					<circle class="st6" cx="313.961" cy="407.559" r="21.335"/>
				</g>
			</g>
		</g>
		<g>
			<g>
				<path class="st0" d="M333.639,456.873H49.313C22.122,456.873,0,434.75,0,407.558c0-27.192,22.122-49.313,49.313-49.313h284.325
					c27.192,0,49.314,22.121,49.314,49.313C382.953,434.75,360.831,456.873,333.639,456.873z M49.313,369.969
					c-20.727,0-37.588,16.863-37.588,37.589c0,20.728,16.862,37.59,37.588,37.59h284.325c20.727,0,37.59-16.862,37.59-37.59
					c0-20.726-16.863-37.589-37.59-37.589H49.313z"/>
			</g>
		</g>
		<g>
			<g>
				<g>
					<path class="st0" d="M68.992,434.756c-14.997,0-27.197-12.201-27.197-27.198s12.2-27.198,27.197-27.198
						s27.198,12.201,27.198,27.198S83.988,434.756,68.992,434.756z M68.992,392.086c-8.531,0-15.472,6.94-15.472,15.472
						c0,8.532,6.941,15.472,15.472,15.472c8.532,0,15.472-6.939,15.472-15.472C84.464,399.026,77.523,392.086,68.992,392.086z"/>
				</g>
			</g>
			<g>
				<g>
					<path class="st0" d="M150.648,434.756c-14.997,0-27.197-12.201-27.197-27.198s12.2-27.198,27.197-27.198
						c14.996,0,27.197,12.201,27.197,27.198S165.645,434.756,150.648,434.756z M150.648,392.086c-8.531,0-15.472,6.94-15.472,15.472
						c0,8.532,6.941,15.472,15.472,15.472c8.531,0,15.472-6.939,15.472-15.472C166.121,399.026,159.18,392.086,150.648,392.086z"/>
				</g>
			</g>
			<g>
				<g>
					<path class="st0" d="M232.305,434.756c-14.997,0-27.197-12.201-27.197-27.198s12.201-27.198,27.197-27.198
						s27.198,12.201,27.198,27.198S247.301,434.756,232.305,434.756z M232.305,392.086c-8.531,0-15.472,6.94-15.472,15.472
						c0,8.532,6.941,15.472,15.472,15.472c8.532,0,15.473-6.939,15.473-15.472C247.777,399.026,240.836,392.086,232.305,392.086z"/>
				</g>
			</g>
			<g>
				<g>
					<path class="st0" d="M313.962,434.756c-14.997,0-27.198-12.201-27.198-27.198s12.201-27.198,27.198-27.198
						s27.197,12.201,27.197,27.198S328.959,434.756,313.962,434.756z M313.962,392.086c-8.532,0-15.473,6.94-15.473,15.472
						c0,8.532,6.94,15.472,15.473,15.472c8.531,0,15.472-6.939,15.472-15.472C329.434,399.026,322.493,392.086,313.962,392.086z"/>
				</g>
			</g>
		</g>
		<g>
			<g>
				<path class="st0" d="M335.297,369.969H39.719c-3.237,0-5.862-2.625-5.862-5.862v-82.101c0-3.238,2.625-5.863,5.862-5.863
					h274.424c14.897,0,27.017,12.119,27.017,27.016v60.948C341.159,367.344,338.534,369.969,335.297,369.969z M45.582,358.244
					h283.852v-55.086c0-8.431-6.859-15.291-15.291-15.291H45.582V358.244z"/>
			</g>
		</g>
		<g>
			<g>
				<path class="st0" d="M441.865,397.263c-38.672,0-70.134-31.462-70.134-70.134s31.462-70.134,70.134-70.134
					c38.673,0,70.135,31.462,70.135,70.134S480.538,397.263,441.865,397.263z M441.865,268.72
					c-32.206,0-58.408,26.202-58.408,58.409s26.202,58.408,58.408,58.408c32.207,0,58.409-26.201,58.409-58.408
					S474.072,268.72,441.865,268.72z"/>
			</g>
		</g>
		<g>
			<g>
				<path class="st2" d="M281.448,322.014L281.448,322.014c-21.071-12.916-27.123-40.793-13.303-61.283l124.68-184.853
					c10.091-14.96,30.174-19.32,45.559-9.889l0,0c15.386,9.431,20.614,29.305,11.861,45.086L342.095,306.06
					C330.107,327.672,302.52,334.93,281.448,322.014z"/>
			</g>
		</g>
		<g>
			<g>
				<path class="st3" d="M300.9,290.279L300.9,290.279c-8.445-5.178-10.871-16.352-5.332-24.564l100.914-157.196
					c4.045-5.996,12.095-7.744,18.262-3.964l0,0c6.167,3.78,8.263,11.747,4.754,18.072L325.21,283.884
					C320.405,292.547,309.348,295.456,300.9,290.279z"/>
			</g>
		</g>
		<g>
			<g>
				<path class="st0" d="M304.018,334.305c-8.958,0-17.764-2.469-25.633-7.293c-11.567-7.09-19.523-18.297-22.401-31.555
					c-2.878-13.26-0.285-26.756,7.302-38.006L387.965,72.6c11.88-17.61,35.371-22.711,53.483-11.609
					c18.111,11.103,24.229,34.351,13.924,52.928L347.223,308.903c-6.582,11.864-17.432,20.3-30.553,23.752
					C312.474,333.758,308.228,334.305,304.018,334.305z M420.762,66.861c-8.952,0-17.702,4.328-23.076,12.295L273.007,264.01
					c-5.782,8.57-7.758,18.855-5.565,28.959c2.194,10.103,8.256,18.643,17.071,24.047c8.814,5.402,19.177,6.931,29.174,4.3
					c9.999-2.631,18.268-9.058,23.282-18.099l108.149-194.985c7.251-13.073,2.947-29.432-9.798-37.244
					C430.77,68.198,425.733,66.861,420.762,66.861z"/>
			</g>
		</g>
		<g>
			<g>
				<path class="st0" d="M309.939,298.721c-4.229,0-8.387-1.166-12.102-3.443l0,0c-5.461-3.348-9.217-8.64-10.575-14.898
					c-1.354-6.237-0.145-12.586,3.407-17.885L391.55,105.352c0.023-0.037,0.048-0.074,0.073-0.112
					c5.816-8.62,17.315-11.121,26.185-5.683c8.868,5.436,11.862,16.819,6.817,25.914c-0.022,0.039-0.044,0.078-0.065,0.116
					l-94.257,161.203c-3.11,5.57-8.218,9.529-14.391,11.152C313.932,298.463,311.928,298.721,309.939,298.721z M303.965,285.281
					c2.709,1.659,5.892,2.125,8.965,1.321c3.072-0.808,5.613-2.784,7.154-5.562c0.021-0.039,0.044-0.078,0.065-0.115l94.249-161.192
					c1.953-3.582,0.766-8.044-2.719-10.181c-3.482-2.134-7.998-1.169-10.305,2.197L300.502,268.881
					c-0.024,0.037-0.048,0.074-0.072,0.111c-1.777,2.635-2.384,5.795-1.71,8.899C299.393,280.996,301.257,283.621,303.965,285.281
					L303.965,285.281z"/>
			</g>
		</g>
		<g>
			<g>
				<path class="st4" d="M171.983,328.596H27.016c-11.683,0-21.153-9.471-21.153-21.153V142.786
					c0-11.683,9.471-21.153,21.153-21.153H150.83c11.683,0,21.153,9.471,21.153,21.153V328.596z"/>
			</g>
		</g>
		<g>
			<g>
				<path class="st5" d="M150.83,121.633h-11.629v206.963h32.782v-185.81C171.983,131.104,162.512,121.633,150.83,121.633z"/>
			</g>
		</g>
		<g>
			<g>
				<path class="st0" d="M171.983,334.459H27.016C12.119,334.459,0,322.34,0,307.442V142.786c0-14.896,12.119-27.015,27.016-27.015
					H150.83c14.896,0,27.016,12.119,27.016,27.015v185.81C177.846,331.834,175.221,334.459,171.983,334.459z M27.016,127.496
					c-8.431,0-15.291,6.859-15.291,15.29v164.657c0,8.431,6.86,15.291,15.291,15.291h139.105V142.786
					c0-8.431-6.859-15.29-15.291-15.29H27.016z"/>
			</g>
		</g>
		<g>
			<g>
				<path class="st7" d="M124.015,232.523H53.831c-8.387,0-15.186-6.799-15.186-15.187v-39.675c0-8.387,6.799-15.187,15.186-15.187
					h70.184c8.387,0,15.186,6.799,15.186,15.187v39.675C139.201,225.724,132.401,232.523,124.015,232.523z"/>
			</g>
		</g>
		<g>
			<g>
				<path class="st4" d="M124.015,162.475h-11.44v70.048h11.44c8.387,0,15.187-6.799,15.187-15.186v-39.675
					C139.201,169.274,132.401,162.475,124.015,162.475z"/>
			</g>
		</g>
		<g>
			<g>
				<path class="st0" d="M124.014,238.386H53.832c-11.606,0-21.049-9.442-21.049-21.049v-39.675
					c0-11.607,9.443-21.049,21.049-21.049h70.183c11.606,0,21.049,9.442,21.049,21.049v39.675
					C145.064,228.943,135.621,238.386,124.014,238.386z M53.832,168.337c-5.141,0-9.324,4.183-9.324,9.324v39.675
					c0,5.141,4.183,9.324,9.324,9.324h70.183c5.141,0,9.324-4.183,9.324-9.324v-39.675c0-5.141-4.183-9.324-9.324-9.324H53.832z"/>
			</g>
		</g>
	</g>
</g>
</svg>